<?xml version="1.0" encoding="utf-8"?>
<!-- Generator: Adobe Illustrator 16.0.0, SVG Export Plug-In . SVG Version: 6.00 Build 0)  -->
<!DOCTYPE svg PUBLIC "-//W3C//DTD SVG 1.1//EN" "http://www.w3.org/Graphics/SVG/1.1/DTD/svg11.dtd">
<svg version="1.1" id="Calque_1" xmlns="http://www.w3.org/2000/svg" xmlns:xlink="http://www.w3.org/1999/xlink" x="0px" y="0px"
	 width="412.857px" height="205.384px" viewBox="0 0 412.857 205.384" enable-background="new 0 0 412.857 205.384"
	 xml:space="preserve">
<g>
	<defs>
		<rect id="SVGID_1_" x="12.77" y="11.184" width="400.088" height="179.783"/>
	</defs>
	<clipPath id="SVGID_2_">
		<use xlink:href="#SVGID_1_"  overflow="visible"/>
	</clipPath>
	
		<rect x="40.981" y="41.656" clip-path="url(#SVGID_2_)" fill="none" stroke="#F39200" stroke-width="5" stroke-linecap="round" stroke-linejoin="round" width="360.376" height="145.81"/>
	<path clip-path="url(#SVGID_2_)" fill="#9D9D9C" d="M130.598,165.992h2.714v-1.764h-7.547v1.764h2.714v8.23h2.119V165.992z
		 M119.367,170.066c0.711-2.301,1.142-3.744,1.292-4.326c0.036,0.164,0.097,0.387,0.181,0.67c0.084,0.281,0.461,1.5,1.131,3.656
		H119.367z M125.485,174.222l-3.541-10.035h-2.591l-3.527,10.035h2.283l0.725-2.379h3.643l0.725,2.379H125.485z M114.561,164.228
		h-2.112v3.916h-3.958v-3.916h-2.119v9.994h2.119v-4.312h3.958v4.312h2.112V164.228z M105.114,164.228h-2.085l-1.271,5.455
		c-0.082,0.328-0.174,0.758-0.274,1.289c-0.1,0.531-0.173,0.975-0.219,1.328c-0.05-0.369-0.123-0.811-0.218-1.326
		c-0.096-0.514-0.176-0.896-0.24-1.146l-1.456-5.6h-2.003l-1.456,5.6c-0.086,0.299-0.179,0.723-0.277,1.268
		c-0.098,0.543-0.16,0.945-0.188,1.205c-0.1-0.738-0.262-1.611-0.485-2.617l-1.278-5.455h-2.085l2.55,9.994h2.406l1.347-5.236
		c0.059-0.232,0.143-0.621,0.253-1.166c0.109-0.543,0.177-0.939,0.205-1.186c0.018,0.201,0.087,0.594,0.208,1.178
		c0.121,0.586,0.206,0.973,0.256,1.16l1.354,5.25h2.413L105.114,164.228z"/>
	<path clip-path="url(#SVGID_2_)" fill="#9D9D9C" d="M242.292,172.472h-3.637v-2.578h3.384v-1.734h-3.384v-2.195h3.637v-1.736
		h-5.756v9.994h5.756V172.472z M230.541,170.386l2.386,3.836h2.352c-0.456-0.656-1.436-2.107-2.94-4.354
		c0.593-0.262,1.052-0.619,1.374-1.078c0.324-0.457,0.486-0.98,0.486-1.568c0-1.008-0.326-1.758-0.979-2.252
		c-0.65-0.496-1.656-0.742-3.014-0.742h-2.912v9.994h2.119v-3.836H230.541z M229.413,165.964h0.643c0.684,0,1.188,0.1,1.514,0.301
		c0.326,0.201,0.488,0.537,0.488,1.012c0,0.479-0.158,0.828-0.478,1.053c-0.319,0.223-0.813,0.336-1.483,0.336h-0.684V165.964z
		 M225.209,172.472h-3.637v-2.578h3.384v-1.734h-3.384v-2.195h3.637v-1.736h-5.756v9.994h5.756V172.472z M216.931,164.228h-2.112
		v3.916h-3.958v-3.916h-2.119v9.994h2.119v-4.312h3.958v4.312h2.112V164.228z M207.483,164.228h-2.085l-1.271,5.455
		c-0.082,0.328-0.174,0.758-0.274,1.289s-0.173,0.975-0.219,1.328c-0.05-0.369-0.123-0.811-0.218-1.326
		c-0.096-0.514-0.176-0.896-0.24-1.146l-1.456-5.6h-2.003l-1.456,5.6c-0.086,0.299-0.179,0.723-0.277,1.268
		c-0.098,0.543-0.16,0.945-0.188,1.205c-0.1-0.738-0.262-1.611-0.485-2.617l-1.278-5.455h-2.085l2.55,9.994h2.406l1.347-5.236
		c0.059-0.232,0.143-0.621,0.253-1.166c0.109-0.543,0.177-0.939,0.205-1.186c0.018,0.201,0.087,0.594,0.208,1.178
		c0.121,0.586,0.206,0.973,0.256,1.16l1.354,5.25h2.413L207.483,164.228z"/>
	<path clip-path="url(#SVGID_2_)" fill="#9D9D9C" d="M343.054,164.228h-1.906v4.73c0,0.537,0.033,1.457,0.102,2.754h-0.048
		l-4.341-7.484h-2.672v9.994h1.893v-4.703c0-0.57-0.043-1.521-0.13-2.857h0.062l4.348,7.561h2.693V164.228z M332.104,172.472h-3.638
		v-2.578h3.385v-1.734h-3.385v-2.195h3.638v-1.736h-5.757v9.994h5.757V172.472z M323.824,164.228h-2.112v3.916h-3.957v-3.916h-2.119
		v9.994h2.119v-4.312h3.957v4.312h2.112V164.228z M314.378,164.228h-2.086l-1.271,5.455c-0.082,0.328-0.175,0.758-0.274,1.289
		s-0.173,0.975-0.219,1.328c-0.05-0.369-0.123-0.811-0.218-1.326c-0.097-0.514-0.177-0.896-0.24-1.146l-1.456-5.6h-2.003l-1.456,5.6
		c-0.086,0.299-0.179,0.723-0.277,1.268c-0.098,0.543-0.16,0.945-0.188,1.205c-0.1-0.738-0.262-1.611-0.485-2.617l-1.278-5.455
		h-2.084l2.549,9.994h2.406l1.348-5.236c0.059-0.232,0.143-0.621,0.253-1.166c0.108-0.543,0.177-0.939,0.205-1.186
		c0.018,0.201,0.087,0.594,0.208,1.178c0.121,0.586,0.205,0.973,0.256,1.16l1.354,5.25h2.414L314.378,164.228z"/>
	<path clip-path="url(#SVGID_2_)" d="M239.422,77.391l4.051-5.757h-3.797l-2.698,3.938c-0.533,0.75-0.888,1.298-1.062,1.643v-5.581
		h-3.49v12.851h3.49v-4.298l1.027-0.615l2.541,4.913h3.92L239.422,77.391z M223.874,74.28c0.854,0,1.498,0.306,1.929,0.918
		c0.431,0.613,0.646,1.56,0.646,2.844c0,1.277-0.213,2.217-0.637,2.821c-0.425,0.603-1.076,0.905-1.955,0.905
		c-1.729,0-2.594-1.242-2.594-3.727C221.263,75.534,222.133,74.28,223.874,74.28 M228.522,73.111
		c-1.055-1.119-2.604-1.68-4.648-1.68c-2.039,0-3.594,0.564-4.663,1.692s-1.604,2.761-1.604,4.9c0,2.162,0.538,3.809,1.613,4.938
		c1.075,1.131,2.62,1.697,4.637,1.697c2.045,0,3.598-0.563,4.657-1.688c1.062-1.125,1.591-2.768,1.591-4.93
		C230.104,75.874,229.577,74.23,228.522,73.111 M209.53,74.28c0.855,0,1.498,0.306,1.929,0.918c0.431,0.613,0.646,1.56,0.646,2.844
		c0,1.277-0.212,2.217-0.637,2.821c-0.425,0.603-1.077,0.905-1.956,0.905c-1.728,0-2.592-1.242-2.592-3.727
		C206.92,75.534,207.79,74.28,209.53,74.28 M214.179,73.111c-1.054-1.119-2.604-1.68-4.649-1.68c-2.039,0-3.593,0.564-4.663,1.692
		c-1.069,1.128-1.604,2.761-1.604,4.9c0,2.162,0.538,3.809,1.613,4.938c1.075,1.131,2.621,1.697,4.636,1.697
		c2.045,0,3.598-0.563,4.659-1.688c1.061-1.125,1.59-2.768,1.59-4.93C215.761,75.874,215.233,74.23,214.179,73.111 M196.232,79.105
		c0.551,0,0.971,0.113,1.261,0.343c0.29,0.228,0.435,0.557,0.435,0.983c0,0.914-0.542,1.371-1.626,1.371h-1.221v-2.697H196.232z
		 M195.081,74.262h0.975c1.09,0,1.635,0.361,1.635,1.081c0,0.405-0.136,0.709-0.409,0.914c-0.272,0.206-0.657,0.309-1.155,0.309
		h-1.046V74.262z M191.609,84.484h5.001c1.512,0,2.705-0.335,3.582-1.006c0.875-0.672,1.313-1.591,1.313-2.757
		c0-0.784-0.178-1.424-0.536-1.916c-0.357-0.491-0.934-0.843-1.731-1.054v-0.088c0.603-0.146,1.09-0.475,1.459-0.985
		c0.369-0.509,0.554-1.125,0.554-1.845c0-1.096-0.424-1.903-1.27-2.422c-0.847-0.518-2.144-0.778-3.89-0.778h-4.482V84.484z"/>
</g>
<polygon points="155.68,143.505 161.425,143.505 161.425,135.794 169.37,135.794 169.37,130.072 161.425,130.072 161.425,122.234 
	155.68,122.234 155.68,130.072 147.735,130.072 147.735,135.794 155.68,135.794 "/>
<polygon points="272.155,143.505 277.899,143.505 277.899,135.794 285.845,135.794 285.845,130.072 277.899,130.072 
	277.899,122.234 272.155,122.234 272.155,130.072 264.21,130.072 264.21,135.794 272.155,135.794 "/>
<g>
	<defs>
		<rect id="SVGID_3_" x="12.77" y="11.184" width="400.088" height="179.783"/>
	</defs>
	<clipPath id="SVGID_4_">
		<use xlink:href="#SVGID_3_"  overflow="visible"/>
	</clipPath>
	<path clip-path="url(#SVGID_4_)" fill="#F39200" d="M42.533,70.712c16.438,0,29.764-13.326,29.764-29.765
		c0-16.438-13.326-29.764-29.764-29.764S12.77,24.51,12.77,40.947C12.77,57.386,26.095,70.712,42.533,70.712"/>
	<path clip-path="url(#SVGID_4_)" fill="#FFFFFF" d="M48.308,44.785h-6.804v-0.123c1.993-1.788,3.295-3.002,3.906-3.643
		c0.611-0.64,1.102-1.249,1.471-1.826c0.369-0.579,0.641-1.167,0.818-1.767c0.176-0.599,0.264-1.251,0.264-1.957
		c0-0.942-0.252-1.794-0.756-2.553c-0.505-0.759-1.214-1.343-2.129-1.753s-1.955-0.616-3.119-0.616
		c-0.927,0-1.762,0.095-2.504,0.283c-0.743,0.188-1.43,0.462-2.061,0.819c-0.632,0.356-1.411,0.948-2.338,1.777l2.67,3.125
		c0.73-0.631,1.384-1.108,1.963-1.433c0.578-0.324,1.15-0.486,1.716-0.486c0.55,0,0.976,0.135,1.28,0.406
		c0.303,0.27,0.455,0.64,0.455,1.106c0,0.379-0.076,0.738-0.228,1.083c-0.151,0.345-0.42,0.758-0.806,1.237
		c-0.385,0.479-1.205,1.376-2.461,2.688l-4.392,4.441v3.199h13.055V44.785z"/>
	<path clip-path="url(#SVGID_4_)" fill="#F7A421" d="M216.7,121.05c-2.889,0-5.23,2.342-5.23,5.229c0,2.889,2.341,5.23,5.23,5.23
		s5.229-2.342,5.229-5.23C221.929,123.392,219.589,121.05,216.7,121.05 M224.821,126.501c0,4.426-1.891,12.018-8.01,18.248
		c-6.009-6.119-8.011-13.822-8.011-18.248c0-4.424,3.586-8.01,8.011-8.01C221.235,118.492,224.821,122.078,224.821,126.501"/>
	<path clip-path="url(#SVGID_4_)" fill="#F7A421" d="M182.921,136.281c-0.531,0.146-0.916,0.703-0.832,1.256
		c0.034,0.494,0.435,0.922,0.916,1.018c0.257,0.031,0.532,0.031,0.763-0.098c0.333-0.166,0.583-0.494,0.632-0.865
		c0.077-0.424-0.113-0.883-0.467-1.133C183.648,136.244,183.264,136.191,182.921,136.281 M248.753,129.332
		c-0.555,0.123-1.072,0.432-1.41,0.895c-0.641,0.834-0.606,2.109,0.086,2.9c0.593,0.721,1.645,1.014,2.523,0.695
		c0.86-0.27,1.512-1.1,1.569-2c0.108-0.994-0.517-2.01-1.451-2.361C249.657,129.283,249.194,129.271,248.753,129.332
		 M182.976,124.695c-0.366,0.09-0.686,0.357-0.819,0.713c-0.087,0.203-0.076,0.43-0.077,0.646c0.001,2.232,0,4.465,0.001,6.697
		c-0.033,0.533,0.364,1.047,0.882,1.164c0.281,0.055,0.597,0.045,0.846-0.111c0.363-0.193,0.602-0.59,0.607-1.002
		c0.001-2.318-0.001-4.637,0.001-6.953c0.004-0.453-0.269-0.908-0.694-1.08C183.49,124.66,183.225,124.654,182.976,124.695
		 M186.729,115.406c-0.01,0.061-0.014,0.125-0.014,0.189c0.001,8.293,0,16.588,0.001,24.883c0.004,2.451-0.01,4.904,0.007,7.355
		c19.291-0.006,38.584,0.004,57.876-0.004c-0.014-5.111-0.002-10.225-0.006-15.336c0.002-5.695-0.004-11.391,0.004-17.086
		c-11.637,0.008-23.271,0-34.908,0.004C202.034,115.408,194.38,115.419,186.729,115.406 M182.772,113.101
		c22.364-0.012,44.729-0.002,67.093-0.006c0.446,0.018,0.896-0.039,1.337,0.049c0.979,0.162,1.848,0.82,2.299,1.701
		c0.227,0.457,0.348,0.965,0.346,1.475v29.721c-0.012,0.559,0.043,1.129-0.094,1.68c-0.197,0.791-0.707,1.506-1.402,1.939
		c-0.525,0.33-1.145,0.494-1.762,0.488c-22.27-0.002-44.54,0-66.81,0c-0.477-0.008-0.96,0.02-1.434-0.059
		c-0.686-0.139-1.329-0.502-1.789-1.035c-0.514-0.58-0.81-1.359-0.78-2.139v-30.754c0.015-0.725,0.307-1.438,0.786-1.98
		C181.114,113.544,181.929,113.148,182.772,113.101"/>
	<path clip-path="url(#SVGID_4_)" fill="#F7A421" d="M340.933,130.787h-8.77v-8.465h8.77V130.787z M340.933,141.322h-8.77v-8.465
		h8.77V141.322z M340.933,151.927h-8.77v-8.467h8.77V151.927z M329.948,130.787h-8.773v-8.465h8.773V130.787z M329.948,141.322
		h-8.773v-8.465h8.773V141.322z M329.948,151.927h-8.773v-8.467h8.773V151.927z M318.96,130.787h-8.771v-8.465h8.771V130.787z
		 M318.96,141.322h-8.771v-8.465h8.771V141.322z M318.96,151.927h-8.771v-8.467h8.771V151.927z M307.974,130.787h-8.77v-8.465h8.77
		V130.787z M307.974,141.322h-8.77v-8.465h8.77V141.322z M307.974,151.927h-8.77v-8.467h8.77V151.927z M296.249,119.205v32.043
		c0,2.146,1.489,3.885,3.326,3.885h41.357c1.835,0,3.322-1.738,3.322-3.885v-32.043H296.249z"/>
	<path clip-path="url(#SVGID_4_)" fill="#F7A421" d="M331.054,115.373c-1.733,0-3.139-1.357-3.139-3.031
		c0-1.062,0.573-1.994,1.435-2.533v1.43c0,1.104,0.761,2,1.706,2c0.941,0,1.707-0.896,1.707-2v-1.43
		c0.861,0.539,1.431,1.475,1.431,2.533C334.192,114.015,332.786,115.373,331.054,115.373 M309.083,115.373
		c-1.734,0-3.14-1.357-3.14-3.031c0-1.062,0.57-1.994,1.433-2.533v1.43c0,1.104,0.763,2,1.707,2c0.942,0,1.707-0.896,1.707-2v-1.43
		c0.86,0.539,1.43,1.475,1.43,2.533C312.22,114.015,310.814,115.373,309.083,115.373 M340.933,108.062h-8.172v-4.943
		c0-1.105-0.764-2-1.707-2s-1.706,0.895-1.706,2v4.943h-18.56v-4.943c0-1.105-0.764-2-1.707-2s-1.707,0.895-1.707,2v4.943h-7.8
		c-1.836,0-3.325,1.738-3.325,3.883v5.656h48.004v-5.656C344.253,109.8,342.768,108.062,340.933,108.062"/>
</g>
<rect x="312.139" y="135.007" fill="#F7A421" width="4.475" height="4.32"/>
<g>
	<defs>
		<rect id="SVGID_5_" x="12.77" y="11.184" width="400.088" height="179.783"/>
	</defs>
	<clipPath id="SVGID_6_">
		<use xlink:href="#SVGID_5_"  overflow="visible"/>
	</clipPath>
	<path clip-path="url(#SVGID_6_)" fill="#F7A421" d="M132.175,118.136c2.053-0.285,3.471-2.107,3.164-4.057
		c-0.306-1.951-2.229-3.297-4.283-3.006c-2.051,0.291-3.468,2.109-3.162,4.057C128.202,117.087,130.122,118.427,132.175,118.136"/>
	<path clip-path="url(#SVGID_6_)" fill="#F7A421" d="M101.826,143.679l17.898-47.342c-10.716,11.133-30.98,24.178-30.98,24.178
		s2.474,5.09,3.83,11.207C93.931,137.843,101.826,143.679,101.826,143.679"/>
	<path clip-path="url(#SVGID_6_)" fill="#F7A421" d="M118.568,150.218l0.535-7.666l3.353-5.924l2.655-0.982l-1.923,5.75
		l-0.281,9.246L118.568,150.218z M113.771,127.521l13.413-3.375L116.2,138.728l-1.971,11.066l-7.499-0.73L113.771,127.521z
		 M136.496,123.582c0.95-1.629-0.939-3.271-2.956-3.787c-2.016-0.514-4.156-0.387-5.619,0.281
		c-1.282,0.59-10.492,2.635-12.739,3.129l8.118-25.211l-1.692,0.423l-16.988,50.443l-11.99-1.168l3.034,4.693l34.48,3.33l3.67-2.271
		l-0.076-1.746l-5.992-0.584l-0.532-6.99c0,0-0.198-5.789,1.19-7.705C129.795,134.503,135.546,125.214,136.496,123.582"/>
	<path clip-path="url(#SVGID_6_)" fill="#F7A421" d="M117.689,101.738l2.035-5.401c0,0-0.588-0.615-1.7,0.651
		c-1.113,1.268-29.281,23.527-29.281,23.527l12.367,2.23L117.689,101.738z"/>
	<path clip-path="url(#SVGID_6_)" fill="#F7A421" d="M104.4,136.845l-2.574,6.834c0,0,0.063,1.141-1.216-0.977
		c-1.28-2.115-3.06-10.982-3.06-10.982L104.4,136.845z"/>
	<path clip-path="url(#SVGID_6_)" fill="#F7A421" d="M120.774,100.885l1.421-4.019c0,0,0.168-0.478,0.391-0.529
		c0.222-0.052,0.705,0,0.705,0s0.445,0.194,0.296,0.687s-1.053,3.325-1.053,3.325L120.774,100.885z"/>
	<path clip-path="url(#SVGID_6_)" fill="#F7A421" d="M98.745,148.285c0,0-6.685-0.764-7.872-0.764s-1.335,3.66,0,4.152
		c1.336,0.492,7.883,1.012,7.872,1.01c-0.011-0.002,31.399,3.031,31.399,3.031s3.978-0.523,4.2-1.156
		c0.223-0.633,0.672-2.736-0.605-2.861C132.461,151.572,98.745,148.285,98.745,148.285"/>
</g>
</svg>
