<?xml version="1.0" encoding="utf-8"?>
<!-- Generator: Adobe Illustrator 16.0.0, SVG Export Plug-In . SVG Version: 6.00 Build 0)  -->
<!DOCTYPE svg PUBLIC "-//W3C//DTD SVG 1.1//EN" "http://www.w3.org/Graphics/SVG/1.1/DTD/svg11.dtd">
<svg version="1.1" id="Calque_1" xmlns="http://www.w3.org/2000/svg" xmlns:xlink="http://www.w3.org/1999/xlink" x="0px" y="0px"
	 width="283.846px" height="142.308px" viewBox="0 0 283.846 142.308" enable-background="new 0 0 283.846 142.308"
	 xml:space="preserve">
<g>
	<defs>
		<rect id="SVGID_1_" x="7.461" y="5.651" width="267.257" height="125.701"/>
	</defs>
	<clipPath id="SVGID_2_">
		<use xlink:href="#SVGID_1_"  overflow="visible"/>
	</clipPath>
	
		<rect x="39.077" y="37.916" clip-path="url(#SVGID_2_)" fill="none" stroke="#F39200" stroke-width="5" stroke-linecap="round" stroke-linejoin="round" width="233.142" height="90.937"/>
	<path clip-path="url(#SVGID_2_)" d="M154.787,87.44h-4.158v-2.426h3.85v-2.786h-3.85v-2.021h4.158v-2.787h-7.629V90.27h7.629V87.44
		z M144.525,84.209c-0.431-0.57-1.199-1.105-2.307-1.604c-1.155-0.527-1.862-0.892-2.123-1.09c-0.261-0.199-0.391-0.426-0.391-0.678
		c0-0.233,0.102-0.43,0.308-0.589c0.205-0.158,0.533-0.236,0.984-0.236c0.873,0,1.91,0.275,3.111,0.825l1.064-2.68
		c-1.383-0.616-2.74-0.923-4.07-0.923c-1.506,0-2.689,0.331-3.55,0.993c-0.862,0.662-1.292,1.585-1.292,2.769
		c0,0.632,0.101,1.181,0.303,1.644s0.513,0.873,0.932,1.23c0.418,0.357,1.047,0.727,1.885,1.107c0.926,0.416,1.495,0.69,1.709,0.826
		c0.214,0.135,0.369,0.268,0.466,0.399c0.097,0.132,0.145,0.286,0.145,0.461c0,0.282-0.12,0.513-0.36,0.69
		c-0.241,0.179-0.619,0.268-1.134,0.268c-0.598,0-1.254-0.095-1.969-0.285c-0.715-0.189-1.403-0.456-2.065-0.796v3.095
		c0.627,0.299,1.23,0.509,1.81,0.629s1.298,0.18,2.154,0.18c1.025,0,1.919-0.172,2.68-0.514c0.763-0.344,1.345-0.824,1.749-1.442
		c0.405-0.618,0.607-1.325,0.607-2.122C145.171,85.5,144.955,84.781,144.525,84.209 M135.107,77.419h-3.348l-1.424,6.46
		c-0.34,1.606-0.548,2.734-0.624,3.385c-0.065-0.505-0.194-1.266-0.387-2.285c-0.193-1.021-0.384-1.919-0.571-2.698l-1.099-4.861
		h-3.217l-1.133,4.861c-0.17,0.674-0.353,1.523-0.55,2.549c-0.196,1.025-0.332,1.836-0.408,2.435
		c-0.118-0.845-0.334-1.978-0.651-3.401l-1.397-6.443h-3.349l3.182,12.851h4.104c0.75-3.369,1.176-5.291,1.279-5.767
		c0.102-0.474,0.207-0.994,0.312-1.56c0.106-0.565,0.182-1.038,0.229-1.419c0.058,0.469,0.15,1.052,0.276,1.749
		s0.219,1.163,0.277,1.396l1.231,5.6h4.104L135.107,77.419z M109.514,80.066c0.855,0,1.498,0.306,1.929,0.918
		c0.43,0.613,0.646,1.56,0.646,2.844c0,1.277-0.213,2.217-0.637,2.821c-0.425,0.603-1.077,0.905-1.956,0.905
		c-1.729,0-2.593-1.242-2.593-3.727C106.903,81.32,107.773,80.066,109.514,80.066 M114.163,78.897
		c-1.055-1.119-2.605-1.68-4.649-1.68c-2.04,0-3.594,0.564-4.663,1.692s-1.604,2.761-1.604,4.9c0,2.162,0.537,3.809,1.613,4.938
		c1.075,1.131,2.62,1.697,4.636,1.697c2.045,0,3.598-0.563,4.658-1.688c1.061-1.125,1.591-2.768,1.591-4.93
		C115.745,81.66,115.218,80.016,114.163,78.897 M95.012,80.047h0.685c1.19,0,1.784,0.443,1.784,1.327
		c0,1.073-0.606,1.609-1.819,1.609h-0.65V80.047z M95.89,85.594l2.725,4.676h3.938l-3.745-5.6c1.454-0.813,2.18-1.965,2.18-3.454
		c0-2.53-1.746-3.797-5.238-3.797h-4.21V90.27h3.472v-4.676H95.89z M84.034,84.891c0.551,0,0.971,0.113,1.261,0.343
		c0.29,0.228,0.435,0.557,0.435,0.983c0,0.914-0.542,1.371-1.626,1.371h-1.221v-2.697H84.034z M82.883,80.047h0.975
		c1.09,0,1.635,0.361,1.635,1.081c0,0.405-0.136,0.709-0.409,0.914c-0.272,0.206-0.657,0.309-1.155,0.309h-1.046V80.047z
		 M79.411,90.27h5.001c1.512,0,2.705-0.335,3.582-1.006c0.875-0.672,1.313-1.591,1.313-2.757c0-0.784-0.178-1.424-0.536-1.916
		c-0.357-0.491-0.934-0.843-1.731-1.054V83.45c0.603-0.146,1.09-0.475,1.459-0.985c0.369-0.509,0.554-1.125,0.554-1.845
		c0-1.096-0.424-1.903-1.27-2.422c-0.847-0.518-2.144-0.778-3.89-0.778h-4.482V90.27z"/>
	<path clip-path="url(#SVGID_2_)" fill="#F39200" d="M37.225,65.179c16.438,0,29.764-13.326,29.764-29.765
		c0-16.438-13.326-29.764-29.764-29.764S7.461,18.977,7.461,35.415C7.461,51.853,20.787,65.179,37.225,65.179"/>
	<path clip-path="url(#SVGID_2_)" fill="#FFFFFF" d="M40.785,25.274h-4.38l-6.177,5.033l2.522,3.1l2.043-1.685
		c0.451-0.402,0.828-0.788,1.132-1.157c-0.05,0.96-0.074,2.018-0.074,3.175v9.523h4.934V25.274z"/>
	<path clip-path="url(#SVGID_2_)" fill="#F7A421" d="M246.55,109.702c0,1.916-1.553,3.467-3.467,3.467h-41.909
		c-1.916,0-3.468-1.551-3.468-3.467V57.067c0-1.915,1.552-3.467,3.468-3.467h41.909c1.916,0,3.467,1.552,3.467,3.467V109.702z
		 M245.279,50.004h-46.3c-2.872,0-5.2,2.329-5.2,5.202v56.355c0,2.874,2.328,5.2,5.2,5.2h46.3c2.873,0,5.2-2.327,5.2-5.2V55.207
		C250.479,52.333,248.152,50.004,245.279,50.004"/>
</g>
<rect x="202.441" y="67.747" fill="#F7A421" width="39.453" height="4.312"/>
<rect x="202.441" y="58.774" fill="#F7A421" width="39.453" height="4.312"/>
<rect x="202.441" y="76.721" fill="#F7A421" width="39.453" height="4.312"/>
<g>
	<defs>
		<rect id="SVGID_3_" x="7.461" y="5.651" width="267.257" height="125.701"/>
	</defs>
	<clipPath id="SVGID_4_">
		<use xlink:href="#SVGID_3_"  overflow="visible"/>
	</clipPath>
	<path clip-path="url(#SVGID_4_)" fill="#F7A421" d="M239.679,90.773l-6.379,7.545l-1.923-2.207
		c-0.784-0.898-2.146-0.99-3.043-0.209c-0.897,0.782-0.991,2.144-0.208,3.042l3.573,4.102c0.411,0.47,1.003,0.739,1.626,0.739h0.016
		c0.629-0.004,1.225-0.283,1.629-0.765l8.002-9.466c0.767-0.91,0.653-2.268-0.257-3.037
		C241.806,89.746,240.445,89.862,239.679,90.773"/>
</g>
<rect x="202.441" y="85.694" fill="#F7A421" width="18.773" height="4.312"/>
<g>
	<defs>
		<rect id="SVGID_5_" x="7.461" y="5.651" width="267.257" height="125.701"/>
	</defs>
	<clipPath id="SVGID_6_">
		<use xlink:href="#SVGID_5_"  overflow="visible"/>
	</clipPath>
	<path clip-path="url(#SVGID_6_)" fill="#F7A421" d="M241.052,98.875c0.008,0.12,0.022,0.238,0.022,0.359
		c0,4.132-3.349,7.479-7.478,7.479s-7.475-3.347-7.475-7.479c0-4.128,3.346-7.475,7.475-7.475c0.787,0,1.539,0.13,2.248,0.354
		l2.187-2.829c-1.356-0.605-2.854-0.95-4.435-0.95c-6.021,0-10.902,4.882-10.902,10.901c0,6.022,4.882,10.905,10.902,10.905
		c6.022,0,10.904-4.883,10.904-10.905c0-1.125-0.186-2.201-0.501-3.221L241.052,98.875z"/>
</g>
</svg>
