<?xml version="1.0" encoding="utf-8"?>
<!-- Generator: Adobe Illustrator 16.0.0, SVG Export Plug-In . SVG Version: 6.00 Build 0)  -->
<!DOCTYPE svg PUBLIC "-//W3C//DTD SVG 1.1//EN" "http://www.w3.org/Graphics/SVG/1.1/DTD/svg11.dtd">
<svg version="1.1" id="Calque_1" xmlns="http://www.w3.org/2000/svg" xmlns:xlink="http://www.w3.org/1999/xlink" x="0px" y="0px"
	 width="281.406px" height="137.692px" viewBox="0 0 281.406 137.692" enable-background="new 0 0 281.406 137.692"
	 xml:space="preserve">
<rect x="40.187" y="37.146" fill="#F39200" width="233.142" height="90.937"/>
<g>
	<defs>
		<rect id="SVGID_1_" x="8.923" y="5.881" width="266.906" height="124.702"/>
	</defs>
	<clipPath id="SVGID_2_">
		<use xlink:href="#SVGID_1_"  overflow="visible"/>
	</clipPath>
	
		<rect x="40.187" y="37.146" clip-path="url(#SVGID_2_)" fill="none" stroke="#F39200" stroke-width="5" stroke-linecap="round" stroke-linejoin="round" width="233.142" height="90.937"/>
	<path clip-path="url(#SVGID_2_)" fill="#FFFFFF" d="M145.041,76.649h-3.779l4.227,7.938v4.914h3.498v-5.02l4.229-7.832h-3.763
		l-2.215,4.766L145.041,76.649z M134.099,79.296c0.855,0,1.498,0.307,1.929,0.918c0.43,0.613,0.646,1.561,0.646,2.844
		c0,1.277-0.213,2.219-0.637,2.822c-0.425,0.604-1.077,0.904-1.956,0.904c-1.729,0-2.593-1.242-2.593-3.727
		C131.488,80.55,132.358,79.296,134.099,79.296 M138.748,78.128c-1.055-1.119-2.605-1.68-4.649-1.68
		c-2.039,0-3.594,0.564-4.663,1.691c-1.069,1.129-1.604,2.762-1.604,4.9c0,2.162,0.538,3.809,1.613,4.939
		c1.075,1.131,2.62,1.697,4.636,1.697c2.045,0,3.598-0.564,4.658-1.689c1.061-1.125,1.591-2.768,1.591-4.93
		C140.33,80.89,139.803,79.247,138.748,78.128 M124.387,92.194c0.761-0.895,1.142-2.211,1.142-3.951V76.649h-3.489v11.893
		c0,0.838-0.123,1.43-0.369,1.775s-0.656,0.52-1.231,0.52c-0.246,0-0.474-0.023-0.685-0.066c-0.211-0.045-0.41-0.084-0.598-0.119
		v2.699c0.569,0.123,1.169,0.184,1.802,0.184C122.482,93.534,123.625,93.087,124.387,92.194 M119.192,76.649h-3.093v5.811
		c0,0.785,0.041,1.824,0.123,3.121h-0.053l-4.676-8.932h-4.535v12.852h3.076v-5.793c0-0.75-0.056-1.836-0.167-3.262h0.079
		l4.694,9.055h4.552V76.649z M104.708,86.671h-4.157v-2.428h3.849v-2.785h-3.849v-2.021h4.157v-2.787h-7.629v12.852h7.629V86.671z"
		/>
	<path clip-path="url(#SVGID_2_)" fill="#FFFFFF" d="M40.187,66.91c16.438,0,29.764-13.326,29.764-29.765
		c0-16.438-13.326-29.764-29.764-29.764S10.423,20.708,10.423,37.145C10.423,53.583,23.749,66.91,40.187,66.91"/>
	<circle clip-path="url(#SVGID_2_)" fill="none" stroke="#F39200" stroke-width="3" cx="40.187" cy="37.146" r="29.764"/>
	<path clip-path="url(#SVGID_2_)" fill="#F39200" d="M43.771,27.853c-1.058-0.737-2.518-1.106-4.38-1.106
		c-1.288,0-2.431,0.139-3.427,0.418c-0.997,0.279-1.971,0.746-2.923,1.403l2.018,3.247c1.231-0.771,2.42-1.156,3.569-1.156
		c0.615,0,1.105,0.114,1.47,0.345c0.365,0.23,0.548,0.583,0.548,1.058c0,1.265-1.235,1.896-3.704,1.896H35.81v3.655h1.107
		c0.911,0,1.649,0.066,2.215,0.202s0.976,0.337,1.231,0.604c0.254,0.266,0.381,0.646,0.381,1.138c0,0.641-0.244,1.109-0.732,1.409
		c-0.488,0.299-1.266,0.449-2.332,0.449c-0.689,0-1.442-0.097-2.258-0.289c-0.816-0.193-1.618-0.49-2.405-0.892v4.034
		c0.959,0.37,1.852,0.624,2.676,0.764c0.824,0.14,1.721,0.21,2.689,0.21c2.354,0,4.193-0.48,5.518-1.44
		c1.325-0.96,1.987-2.275,1.987-3.95c0-2.461-1.501-3.88-4.503-4.257v-0.074c1.288-0.36,2.272-0.94,2.953-1.74
		c0.681-0.801,1.021-1.759,1.021-2.873C45.358,29.61,44.829,28.591,43.771,27.853"/>
	<path clip-path="url(#SVGID_2_)" fill="#FFFFFF" d="M183.378,61.896c1.574-0.23,3.037,0.859,3.268,2.433
		c0.232,1.573-0.856,3.036-2.431,3.269c-1.575,0.23-3.038-0.858-3.269-2.432C180.714,63.59,181.804,62.126,183.378,61.896
		 M195.296,60.146c1.574-0.231,3.037,0.857,3.27,2.431c0.23,1.573-0.857,3.037-2.432,3.27c-1.574,0.23-3.038-0.857-3.27-2.432
		C192.634,61.841,193.724,60.377,195.296,60.146 M193.494,79.921c-0.437,0.109-0.88,0.207-1.343,0.273
		c-5.533,0.814-10.51-1.869-11.113-5.988l20.039-2.941c0.255,1.729-0.312,3.436-1.456,4.898c2.442-1.025,5.092-1.648,7.866-1.797
		c0.695-2.365,0.912-4.91,0.529-7.509c-1.414-9.636-10.373-16.299-20.008-14.885c-9.636,1.415-16.3,10.372-14.885,20.009
		c1.152,7.85,7.312,13.725,14.766,14.869C189.308,84.194,191.217,81.847,193.494,79.921"/>
	<path clip-path="url(#SVGID_2_)" fill="#FFFFFF" d="M228.234,80.253c-5.563-0.586-9.718-4.418-9.284-8.561l20.144,2.119
		C238.657,77.95,233.794,80.837,228.234,80.253 M221.104,62.911c0.169-1.583,1.585-2.73,3.167-2.563
		c1.584,0.166,2.729,1.583,2.563,3.166s-1.584,2.73-3.166,2.562C222.085,65.91,220.941,64.493,221.104,62.911 M233.087,64.171
		c0.166-1.583,1.582-2.73,3.164-2.563c1.584,0.166,2.731,1.583,2.567,3.166c-0.168,1.582-1.584,2.729-3.167,2.563
		C234.068,67.172,232.919,65.752,233.087,64.171 M231.218,51.881c-9.686-1.019-18.361,6.009-19.383,15.692
		c-0.258,2.455,0.01,4.839,0.697,7.054c7.51,1.201,13.825,5.928,17.219,12.416c8.756-0.18,16.222-6.844,17.158-15.779
		C247.931,61.577,240.903,52.9,231.218,51.881"/>
	<path clip-path="url(#SVGID_2_)" fill="#FFFFFF" d="M201.708,87.931c1.869,0.021,3.363,1.557,3.34,3.428s-1.559,3.365-3.427,3.34
		c-1.871-0.023-3.365-1.557-3.341-3.428C198.303,89.401,199.839,87.905,201.708,87.931 M220.501,102.087
		c-0.064,4.891-5.441,8.787-12.01,8.703c-6.572-0.084-11.848-4.121-11.784-9.014L220.501,102.087z M215.86,88.112
		c1.869,0.025,3.363,1.561,3.343,3.43c-0.025,1.869-1.562,3.365-3.431,3.342c-1.869-0.025-3.365-1.561-3.342-3.43
		C212.459,89.585,213.992,88.089,215.86,88.112 M208.388,118.712c11.44,0.146,20.838-9.01,20.985-20.447
		c0.147-11.443-9.009-20.838-20.449-20.988c-11.442-0.148-20.839,9.008-20.987,20.449
		C187.789,109.169,196.946,118.563,208.388,118.712"/>
</g>
</svg>
